HIERARCHY
ROOT Hips
{
	OFFSET	0.00	0.00	0.00
	CHANNELS 6 Xposition Yposition Zposition Zrotation Xrotation Yrotation
	JOINT LeftUpLeg
	{
		OFFSET	 0.126116	-0.014019	-0.065224
		CHANNELS 3 Zrotation Xrotation Yrotation
		JOINT LeftLeg
		{
			OFFSET	 0.000000	 0.000000	 0.569914
			CHANNELS 3 Zrotation Xrotation Yrotation
			JOINT LeftFoot
			{
				OFFSET	 0.000000	 0.000000	 0.544423
				CHANNELS 3 Zrotation Xrotation Yrotation
				JOINT LeftToeBase
				{
					OFFSET	 0.000000	 0.000000	 0.207117
					CHANNELS 3 Zrotation Xrotation Yrotation
					End Site
					{
						OFFSET	 0.000000	 0.000000	 0.207117
					}
				}
			}
		}
	}
	JOINT RightUpLeg
	{
		OFFSET	-0.124023	-0.008373	-0.065224
		CHANNELS 3 Zrotation Xrotation Yrotation
		JOINT RightLeg
		{
			OFFSET	 0.000000	 0.000000	 0.570047
			CHANNELS 3 Zrotation Xrotation Yrotation
			JOINT RightFoot
			{
				OFFSET	 0.000000	 0.000000	 0.544354
				CHANNELS 3 Zrotation Xrotation Yrotation
				JOINT RightToeBase
				{
					OFFSET	 0.000000	 0.000000	 0.207540
					CHANNELS 3 Zrotation Xrotation Yrotation
					End Site
					{
						OFFSET	 0.000000	 0.000000	 0.207540
					}
				}
			}
		}
	}
	JOINT Spine
	{
		OFFSET	 0.000184	-0.007763	 0.117403
		CHANNELS 3 Zrotation Xrotation Yrotation
		JOINT Spine1
		{
			OFFSET	 0.000000	 0.000000	 0.137269
			CHANNELS 3 Zrotation Xrotation Yrotation
			JOINT Spine2
			{
				OFFSET	 0.000000	 0.000000	 0.156879
				CHANNELS 3 Zrotation Xrotation Yrotation
				JOINT LeftShoulder
				{
					OFFSET	 0.080501	-0.002496	 0.160144
					CHANNELS 3 Zrotation Xrotation Yrotation
					JOINT LeftArm
					{
						OFFSET	 0.000000	 0.000000	 0.164363
						CHANNELS 3 Zrotation Xrotation Yrotation
						JOINT LeftForeArm
						{
							OFFSET	 0.000000	 0.000000	 0.364576
							CHANNELS 3 Zrotation Xrotation Yrotation
							JOINT LeftHand
							{
								OFFSET	 0.000000	 0.000000	 0.360812
								CHANNELS 3 Zrotation Xrotation Yrotation
								JOINT LeftHandIndex1
								{
									OFFSET	 0.000000	 0.000000	 0.086006
									CHANNELS 3 Zrotation Xrotation Yrotation
									JOINT LeftHandIndex2
									{
										OFFSET	 0.000000	 0.000000	 0.047237
										CHANNELS 3 Zrotation Xrotation Yrotation
										JOINT LeftHandIndex3
										{
											OFFSET	-0.004284	-0.000551	 0.038165
											CHANNELS 3 Zrotation Xrotation Yrotation
											End Site
											{
												OFFSET	-0.004284	-0.000551	 0.038165
											}
										}
									}
								}
							}
						}
					}
				}
				JOINT Neck
				{
					OFFSET	 0.000000	 0.000000	 0.176489
					CHANNELS 3 Zrotation Xrotation Yrotation
					JOINT Head
					{
						OFFSET	 0.000000	-0.001747	 0.077940
						CHANNELS 3 Zrotation Xrotation Yrotation
						End Site
						{
							OFFSET	 0.000000	-0.001747	 0.077940
						}
					}
				}
				JOINT RightShoulder
				{
					OFFSET	-0.080363	 0.000306	 0.159706
					CHANNELS 3 Zrotation Xrotation Yrotation
					JOINT RightArm
					{
						OFFSET	 0.000000	 0.000000	 0.164196
						CHANNELS 3 Zrotation Xrotation Yrotation
						JOINT RightForeArm
						{
							OFFSET	 0.000000	 0.000000	 0.365611
							CHANNELS 3 Zrotation Xrotation Yrotation
							JOINT RightHand
							{
								OFFSET	 0.000000	 0.000000	 0.360648
								CHANNELS 3 Zrotation Xrotation Yrotation
								JOINT RightHandIndex1
								{
									OFFSET	 0.000000	 0.000000	 0.069977
									CHANNELS 3 Zrotation Xrotation Yrotation
									JOINT RightHandIndex2
									{
										OFFSET	 0.000000	 0.000000	 0.052305
										CHANNELS 3 Zrotation Xrotation Yrotation
										JOINT RightHandIndex3
										{
											OFFSET	 0.009002	-0.000782	 0.042196
											CHANNELS 3 Zrotation Xrotation Yrotation
											End Site
											{
												OFFSET	 0.009002	-0.000782	 0.042196
											}
										}
									}
								}
							}
						}
					}
				}
			}
		}
	}
}
MOTION
Frames:    7
Frame Time: 0.03333334
-0.618120	-0.198766	 1.245211	-161.415100	 11.838820	 10.221470	 7.294270	-20.198040	 162.364200	-9.053775	-32.763750	-3.857205	-77.014410	 77.665990	 73.415910	-2.385833	 28.452760	 0.000004	 7.113989	-56.850730	-179.053400	-25.218780	-53.928340	-11.656930	 29.143700	 33.842550	-38.792770	 2.384659	 28.388700	-0.000001	 14.734220	-24.153600	-16.163910	 43.553910	 28.169380	 8.423013	 6.322976	-8.437994	-14.252300	-91.776150	 78.527420	 180.000000	 22.346920	 53.547650	-51.130720	-7.616130	 0.034827	-3.324742	 8.144306	-3.043330	-4.289835	-4.131196	 21.524690	 0.986298	-5.167839	 0.733520	 3.519257	-1.378229	 35.397820	-2.634230	-13.963210	 16.416800	-7.949882	-21.937290	 3.444330	 5.080929	 89.782050	 78.203900	-180.000000	 4.573397	 59.277030	-5.923525	-2.745964	-0.033964	 3.312017	 72.437850	 1.392039	 14.327770	 5.715225	 19.176060	-3.692089	 5.027514	 0.245388	-9.378011	-2.350882	 35.473990	 5.254307
-0.617446	-0.196461	 1.243564	-162.306500	 11.370660	 9.974803	 10.034520	-19.863610	 162.760400	-8.411599	-32.480230	-3.479269	-96.870310	 79.675000	 91.989630	-2.385833	 28.452760	 0.000004	 6.695615	-56.346010	-179.087400	-19.745470	-54.342720	-7.206264	 40.332330	 43.214580	-42.959430	 2.384659	 28.388700	-0.000001	 14.932220	-24.992660	-17.174120	 44.406140	 31.213040	 7.710706	 5.903219	-9.668750	-13.737680	-91.776180	 78.527400	-180.000000	 22.221940	 53.539310	-51.118310	-6.625604	 0.026152	-3.326661	 8.838881	-2.647904	-4.584347	-4.131196	 21.524690	 0.986298	-5.167839	 0.733520	 3.519257	-1.378229	 35.397820	-2.634230	-14.018900	 16.333820	-7.701951	-21.967400	 3.243392	 4.594527	 89.782090	 78.203870	-180.000000	 6.002770	 59.368950	-6.879391	-4.496249	-0.047714	 3.306446	 71.766590	 2.910449	 19.149130	 5.715225	 19.176060	-3.692089	 5.027514	 0.245388	-9.378011	-2.350882	 35.473990	 5.254307
-0.613256	-0.192649	 1.244572	-163.939400	 12.181070	 9.581124	 12.807310	-20.312000	 163.536500	-6.345533	-31.797550	-2.318241	-128.487500	 80.197990	 121.040800	-2.385833	 28.452760	 0.000004	 8.594798	-56.296260	-177.385500	-17.221820	-52.886100	-5.048459	 46.202000	 47.536230	-45.243320	 2.384659	 28.388700	-0.000001	 17.187810	-25.037420	-15.843300	 44.112770	 30.010610	 9.144220	 5.918245	-8.648106	-14.845030	-91.776230	 78.527360	-179.999900	 22.160760	 53.410090	-51.479300	-5.634898	 0.017905	-3.326934	 9.528841	-2.209071	-4.906683	-4.131196	 21.524690	 0.986298	-5.167839	 0.733520	 3.519257	-1.378229	 35.397820	-2.634230	-13.843100	 16.998530	-7.846650	-21.869950	 3.055214	 5.037178	 89.782140	 78.203920	 179.999900	 6.799668	 59.460190	-6.763191	-6.381124	-0.062737	 3.302917	 69.445210	 0.822860	 22.007220	 5.715225	 19.176060	-3.692089	 5.027514	 0.245388	-9.378011	-2.350882	 35.473990	 5.254307
-0.606472	-0.184655	 1.242644	-163.232100	 12.244250	 6.781465	 13.696770	-18.381180	 166.097400	-4.185839	-30.086600	-1.120199	-171.775700	 76.800590	 162.145600	-2.385833	 28.452760	 0.000004	 18.452900	-53.796450	-168.484800	-16.866760	-52.487480	-4.739048	 59.596190	 49.274350	-55.845000	 2.384659	 28.388700	-0.000001	 18.037830	-26.025950	-12.239060	 44.469960	 31.795080	 6.658482	 5.938777	-9.201977	-14.614770	-91.776180	 78.527420	-180.000000	 22.129790	 53.381180	-51.982670	-5.039680	 0.013471	-3.327059	 10.084210	-1.788551	-5.193443	-4.131196	 21.524690	 0.986298	-5.167839	 0.733520	 3.519257	-1.378229	 35.397820	-2.634230	-13.265580	 17.153370	-8.424063	-21.844360	 3.723685	 7.114964	 89.782100	 78.203920	 180.000000	 6.422378	 59.288870	-5.186795	-7.001086	-0.066943	 3.302710	 68.629360	-1.086778	 26.679230	 5.715225	 19.176060	-3.692089	 5.027514	 0.245388	-9.378011	-2.350882	 35.473990	 5.254307
-0.595127	-0.176156	 1.241106	-163.570500	 11.590530	 7.407272	 15.529030	-16.892850	 164.653800	-6.591843	-28.437820	-2.213197	-150.420700	 81.589800	 142.705600	-2.385833	 28.452760	 0.000004	 19.556710	-51.650570	-168.915800	-16.461070	-51.395320	-4.350868	 60.876970	 51.299360	-55.458330	 2.384659	 28.388700	-0.000001	 18.931640	-24.157580	-12.124480	 43.886960	 29.618820	 6.974190	 6.352304	-7.758876	-14.326190	-91.776160	 78.527400	 180.000000	 22.554920	 52.784760	-52.720540	-4.783872	 0.011364	-3.332198	 10.336440	-1.475910	-5.406095	-4.131196	 21.524690	 0.986298	-5.167839	 0.733520	 3.519257	-1.378229	 35.397820	-2.634230	-12.746870	 17.183570	-9.303845	-21.995260	 3.824287	 8.581000	 89.782160	 78.203850	 179.999900	 4.871148	 59.379810	-2.841148	-4.569091	-0.047367	 3.314797	 71.522480	-8.240144	 28.979910	 5.715225	 19.176060	-3.692089	 5.027514	 0.245388	-9.378011	-2.350882	 35.473990	 5.254307
-0.581656	-0.166493	 1.241632	-163.290900	 12.091890	 9.428702	 20.225710	-18.201460	 162.104800	-9.192345	-26.736270	-3.271177	-28.606770	 82.708220	 22.577010	-2.385833	 28.452760	 0.000004	 19.070230	-50.943410	-171.355500	-16.460320	-50.197700	-4.288675	 64.383150	 52.838940	-58.152240	 2.384659	 28.388700	-0.000001	 17.420480	-25.143630	-14.759660	 44.736710	 30.102500	 7.025000	 6.135747	-7.526915	-14.692250	-91.776130	 78.527430	 180.000000	 23.610010	 52.526720	-53.422290	-4.857604	 0.012476	-3.335901	 10.066370	-1.369764	-5.493692	-4.131196	 21.524690	 0.986298	-5.167839	 0.733520	 3.519257	-1.378229	 35.397820	-2.634230	-12.699340	 17.554360	-9.121890	-21.985470	 3.246182	 8.735058	 89.782150	 78.203920	 180.000000	 5.209832	 58.916170	-2.593691	-2.277661	-0.028708	 3.326904	 75.977890	-11.926230	 31.462740	 5.715225	 19.176060	-3.692089	 5.027514	 0.245388	-9.378011	-2.350882	 35.473990	 5.254307
-0.563500	-0.153377	 1.241947	-161.574500	 12.311760	 9.823590	 22.912110	-17.777770	 160.811900	-8.623962	-24.151610	-2.740113	-13.357670	 67.008350	 8.182609	-2.385833	 28.452760	 0.000004	 18.830760	-49.276860	-172.348900	-16.788400	-49.461770	-4.481474	 66.146800	 54.614890	-58.539200	 2.384659	 28.388700	-0.000001	 16.495140	-24.815520	-14.845460	 44.663590	 29.602850	 6.112820	 5.745832	-7.306907	-14.055040	-91.776240	 78.527430	-180.000000	 24.711600	 51.644250	-53.957170	-5.728386	 0.020421	-3.342360	 8.683335	-1.770466	-5.264669	-4.131196	 21.524690	 0.986298	-5.167839	 0.733520	 3.519257	-1.378229	 35.397820	-2.634230	-13.446590	 17.688260	-7.449982	-21.756510	 3.200714	 7.703722	 89.782140	 78.203900	 180.000000	 5.275961	 58.566620	-1.691918	-1.744169	-0.024088	 3.334895	 79.683780	-17.355280	 32.174610	 5.715225	 19.176060	-3.692089	 5.027514	 0.245388	-9.378011	-2.350882	 35.473990	 5.254307
